<svg width="24" height="22" viewBox="0 0 24 22" fill="none" xmlns="http://www.w3.org/2000/svg">
<g clip-path="url(#clip0_9_1218)">
<path d="M20.6126 3.24667L17.7228 4.76917L3.76815 12.1192C3.72096 11.747 3.69722 11.3721 3.69707 10.9967C3.69898 9.49909 4.07922 8.02797 4.80012 6.72906C5.52103 5.43015 6.55758 4.34854 7.80712 3.59135C9.05665 2.83416 10.4758 2.42767 11.924 2.41216C13.3722 2.39664 14.7992 2.77262 16.0636 3.50287L17.7177 2.63137L17.9645 2.50117C16.4492 1.3639 14.6594 0.682003 12.7928 0.530837C10.9262 0.379671 9.05555 0.765125 7.38756 1.6446C5.71957 2.52407 4.31921 3.86331 3.34125 5.51431C2.36329 7.16531 1.8458 9.06377 1.846 10.9999C1.846 11.2673 1.85581 11.5336 1.87544 11.7989C1.90294 12.1746 1.82236 12.5503 1.64385 12.8788C1.46534 13.2072 1.19687 13.4738 0.872229 13.6448L0 14.1047V16.2499L2.56795 14.8964L3.39956 14.4575L4.21899 14.026L18.9301 6.27487L20.5832 5.40442L24 3.60367V1.45957L20.6126 3.24667Z" fill="black"/>
<path d="M24 5.75L5.05466 15.725L3.40159 16.5975L0 18.3899V20.5329L3.37824 18.7532L6.26807 17.2307L20.2369 9.8702C20.2841 10.2448 20.3079 10.6222 20.308 11C20.3071 12.4994 19.927 13.9724 19.2054 15.2729C18.4838 16.5734 17.4458 17.6561 16.1944 18.4135C14.9431 19.1709 13.5219 19.5767 12.0721 19.5907C10.6222 19.6046 9.19397 19.2261 7.92926 18.4928L7.82772 18.5484L6.03452 19.4934C7.54942 20.6308 9.33888 21.3128 11.2052 21.4644C13.0715 21.6159 14.942 21.231 16.6099 20.3521C18.2779 19.4732 19.6785 18.1346 20.6569 16.4842C21.6353 14.8338 22.1534 12.9358 22.154 11C22.154 10.7301 22.1438 10.4603 22.1246 10.1936C22.0971 9.81803 22.1776 9.44246 22.3559 9.11404C22.5342 8.78562 22.8024 8.51901 23.1268 8.3477L24 7.8878V5.75Z" fill="black"/>
</g>
<defs>
<clipPath id="clip0_9_1218">
<rect width="24" height="22" fill="white"/>
</clipPath>
</defs>
</svg>
